<?xml version="1.0" standalone="no"?>
<!DOCTYPE svg PUBLIC "-//W3C//DTD SVG 20010904//EN"
 "http://www.w3.org/TR/2001/REC-SVG-20010904/DTD/svg10.dtd">
<svg version="1.0" xmlns="http://www.w3.org/2000/svg"
 width="650.000000pt" height="260.000000pt" viewBox="0 0 650.000000 260.000000"
 preserveAspectRatio="xMidYMid meet">

<g transform="translate(0.000000,260.000000) scale(0.100000,-0.100000)"
fill="#000000" stroke="none">
<path d="M1384 2249 c-354 -59 -657 -326 -767 -674 -75 -239 -57 -467 53 -690
48 -97 145 -230 167 -230 12 0 143 154 143 168 0 4 -5 17 -11 29 -6 11 -8 32
-4 46 l6 26 25 -30 c13 -16 33 -43 44 -60 l20 -31 -45 -46 c-74 -78 -74 -153
1 -236 54 -60 168 -120 289 -152 110 -30 334 -32 450 -5 94 21 235 74 235 86
0 13 -42 33 -122 59 -76 25 -78 31 -57 117 l11 44 47 0 c64 0 143 25 181 56
34 29 40 75 14 112 -16 23 -12 42 11 42 18 0 24 20 15 45 -5 13 -3 28 5 39 10
13 11 24 3 41 -15 33 -5 52 32 60 50 11 56 39 25 126 -108 302 -186 536 -183
554 2 23 -80 275 -90 275 -4 0 -37 -27 -74 -60 l-67 -61 -48 12 c-67 16 -76
29 -22 29 l46 0 76 125 c43 69 77 128 77 130 0 8 -133 44 -200 55 -76 12 -213
11 -286 -1z m126 -15 c0 -9 -40 -165 -51 -201 -6 -18 -17 -33 -25 -33 -8 0
-14 3 -14 8 0 12 20 135 26 160 3 17 1 23 -8 20 -8 -3 -19 -42 -28 -99 -13
-83 -18 -94 -37 -97 -24 -4 -23 -15 -7 175 l5 62 42 4 c78 7 97 7 97 1z m127
-2 l42 -7 -48 -110 c-38 -90 -51 -111 -70 -113 -20 -3 -22 -1 -15 20 38 117
51 169 44 173 -5 3 -23 -40 -41 -95 -25 -80 -35 -100 -50 -100 -25 0 -24 6 8
133 31 120 25 116 130 99z m-292 -44 c-3 -18 -7 -72 -11 -120 -5 -78 -8 -88
-25 -88 -17 0 -19 8 -19 89 0 50 -4 93 -10 96 -6 4 -10 -32 -10 -99 0 -97 -2
-106 -19 -106 -16 0 -20 14 -31 105 -8 63 -9 109 -4 115 9 8 99 38 121 39 8 1
10 -11 8 -31z m457 11 c35 -9 37 -12 27 -31 -11 -20 -120 -201 -123 -204 0 -1
-11 2 -24 7 l-22 9 45 90 c45 90 58 133 29 95 -9 -11 -33 -55 -55 -97 -29 -57
-44 -78 -59 -78 -18 0 -17 6 16 83 20 45 42 97 50 116 15 36 18 37 116 10z
m-602 -145 c9 -80 9 -109 1 -117 -16 -16 -24 -2 -45 88 -10 41 -22 75 -27 75
-13 0 -12 -12 12 -102 16 -65 18 -83 7 -89 -18 -11 -22 -5 -53 91 -15 47 -30
90 -32 97 -5 12 106 75 118 67 3 -2 12 -51 19 -110z m-125 -64 c15 -47 30 -90
32 -97 3 -6 -4 -16 -15 -22 -17 -9 -22 -2 -52 70 -18 43 -36 79 -41 79 -15 0
-11 -15 25 -97 24 -54 31 -80 23 -85 -6 -4 -14 -5 -17 -3 -10 6 -100 163 -100
173 0 14 103 83 111 74 3 -4 19 -45 34 -92z m-115 -85 c55 -93 56 -98 37 -113
-9 -8 -24 7 -61 59 -44 62 -66 83 -66 61 0 -4 22 -38 49 -76 44 -60 55 -96 31
-96 -4 0 -37 35 -74 77 l-66 77 47 48 c26 26 48 48 50 48 1 0 25 -38 53 -85z
m860 -14 c-91 -94 -173 -205 -305 -414 -198 -314 -333 -485 -445 -562 -77 -53
-58 -13 38 83 119 117 199 223 371 490 153 237 229 340 324 437 57 57 70 67
78 53 7 -12 -8 -32 -61 -87z m-203 75 c4 -3 1 -12 -5 -18 -8 -8 -44 -11 -104
-9 -182 4 -322 -52 -453 -184 -92 -91 -142 -176 -176 -300 -18 -68 -21 -97
-16 -195 5 -119 21 -180 68 -270 23 -45 25 -67 9 -84 -10 -10 -61 87 -89 171
-126 373 95 779 481 883 56 16 97 19 176 17 56 -2 105 -7 109 -11z m278 -53
c-13 -33 -10 -48 13 -58 26 -11 27 -18 7 -35 -9 -7 -25 -10 -41 -6 -25 7 -26
10 -20 48 7 43 21 68 38 68 6 0 7 -8 3 -17z m-455 -6 c0 -7 -9 -18 -20 -25
-24 -15 -27 -58 -5 -82 13 -15 13 -25 -3 -93 -15 -68 -20 -77 -39 -77 -21 0
-43 25 -43 49 0 6 11 11 25 11 22 0 25 4 25 39 0 22 -4 43 -10 46 -5 3 -10 1
-10 -4 0 -16 -26 -13 -44 5 -18 18 -19 23 -6 44 7 12 13 11 34 -10 l26 -23 0
61 c0 59 1 61 28 65 15 2 30 5 35 6 4 0 7 -5 7 -12z m79 -1 c9 -11 7 -15 -9
-19 -28 -7 -25 -27 4 -27 13 0 27 -7 30 -16 8 -21 -11 -45 -33 -42 -10 2 -17
-5 -19 -19 -2 -13 -10 -23 -18 -23 -19 0 -18 -16 1 -24 25 -9 17 -50 -15 -81
-16 -16 -33 -26 -36 -22 -6 5 12 92 32 158 3 11 -3 18 -16 22 -11 3 -20 13
-20 24 0 29 11 35 32 16 20 -18 39 -10 20 9 -16 16 -15 45 1 51 22 9 34 7 46
-7z m100 0 c67 -12 112 -27 106 -36 -4 -6 -24 -7 -46 -4 -21 4 -45 2 -51 -3
-20 -15 -57 -22 -64 -12 -3 5 -9 23 -14 39 -8 27 -7 30 13 26 12 -3 38 -7 56
-10z m-275 -22 c13 -33 7 -45 -15 -34 -23 13 -22 14 -38 -18 -19 -35 3 -81 40
-89 36 -7 39 -33 3 -33 -36 0 -84 50 -84 89 0 44 19 79 49 90 36 13 38 13 45
-5z m-475 -91 c55 -64 61 -75 51 -94 -12 -21 -14 -19 -75 41 -34 34 -65 58
-68 53 -3 -5 21 -36 53 -68 55 -54 73 -85 52 -85 -7 0 -142 97 -159 114 -6 6
69 117 77 114 4 -2 35 -35 69 -75z m983 4 c19 -5 14 -14 -48 -79 -85 -90 -172
-201 -294 -378 -161 -233 -275 -366 -391 -456 -47 -36 -59 -41 -68 -30 -10 12
-4 20 31 44 59 41 183 171 250 262 30 41 103 152 163 245 135 213 203 312 274
397 l56 67 3 -33 c2 -25 9 -35 24 -39z m-623 36 c-6 -17 -6 -36 0 -55 9 -24 8
-28 -9 -28 -11 0 -34 13 -52 28 l-31 29 44 26 c55 33 61 33 48 0z m456 7 c3
-5 -16 -36 -41 -70 -36 -46 -52 -59 -66 -54 -16 5 -18 2 -13 -19 4 -15 -1 -36
-15 -59 -20 -34 -23 -36 -53 -27 -17 5 -34 9 -37 9 -2 0 18 24 46 53 74 77 79
84 64 102 -16 20 -5 45 20 45 13 0 20 -7 20 -20 0 -11 5 -20 10 -20 6 0 10 13
10 28 0 16 3 32 7 35 10 10 41 8 48 -3z m219 -113 c-101 -86 -200 -209 -372
-462 -108 -159 -194 -266 -281 -348 -95 -90 -148 -124 -164 -108 -9 10 -5 18
23 39 64 49 191 176 251 253 34 42 117 157 186 255 149 212 230 311 321 394
63 58 67 60 76 40 8 -19 3 -27 -40 -63z m-754 38 c23 -25 83 -50 98 -41 4 2
19 -4 32 -15 l25 -20 -70 3 c-53 3 -78 9 -102 26 -17 12 -39 22 -49 22 -15 0
-14 3 6 25 29 31 31 31 60 0z m397 -1 c3 -9 -3 -25 -16 -37 l-21 -21 0 37 c0
27 4 37 15 37 9 0 18 -7 22 -16z m-756 -90 c67 -50 83 -73 64 -92 -2 -2 -34
15 -72 37 -38 23 -72 41 -76 41 -21 0 1 -20 63 -59 64 -39 80 -58 64 -74 -4
-3 -46 14 -95 39 l-89 44 14 33 c27 64 39 87 46 87 3 0 40 -25 81 -56z m289 8
l0 -37 -27 27 c-22 22 -24 29 -14 42 20 24 41 8 41 -32z m856 -9 c-9 -79 -68
-173 -108 -173 -18 0 -6 38 18 61 30 27 54 77 54 110 0 20 25 59 38 59 3 0 2
-26 -2 -57z m-692 -6 c55 0 75 -8 76 -29 0 -12 -164 -10 -194 2 -20 7 -26 16
-26 40 l0 30 41 -22 c30 -15 59 -21 103 -21z m-171 -34 c25 -13 74 -19 212
-24 172 -7 225 -14 225 -28 -1 -23 -18 -30 -50 -21 -19 6 -94 10 -167 10 -198
0 -283 26 -283 86 0 23 1 24 16 9 9 -8 30 -23 47 -32z m963 -165 c4 -15 0 -17
-44 -11 -44 5 -120 -5 -165 -22 -35 -14 -17 24 27 54 52 36 80 78 97 146 l12
49 34 -99 c18 -54 35 -107 39 -117z m-156 192 c0 -17 -27 -65 -44 -79 -14 -12
-16 -10 -16 9 0 12 9 35 21 51 21 29 39 38 39 19z m-832 -150 c19 -23 28 -41
22 -45 -16 -10 -66 31 -84 70 -21 43 -36 37 -36 -15 0 -29 -5 -42 -19 -50 -11
-5 -22 -10 -25 -10 -8 0 19 70 49 131 l28 54 16 -49 c9 -26 31 -65 49 -86z
m-228 -25 c0 -20 -16 -19 -85 5 -63 22 -85 25 -85 12 0 -5 34 -19 76 -32 81
-26 87 -29 75 -49 -7 -10 -26 -9 -97 7 -88 19 -89 19 -88 48 1 16 7 48 13 71
l12 43 89 -45 c53 -27 90 -51 90 -60z m462 65 c103 -3 190 -9 194 -13 4 -4 1
-13 -7 -20 -11 -10 -54 -11 -189 -6 -96 3 -188 10 -203 14 -15 4 -34 20 -42
36 l-15 28 38 -16 c28 -13 83 -18 224 -23z m503 -105 c-8 -23 -31 -57 -50 -75
-33 -32 -35 -33 -35 -11 0 12 11 37 24 54 27 37 46 89 46 126 0 15 6 33 13 40
19 20 22 -84 2 -134z m-45 53 c0 -13 -10 -39 -22 -58 -21 -33 -23 -34 -26 -12
-3 18 33 92 46 92 1 0 2 -10 2 -22z m-717 -79 l-20 -20 -17 34 c-9 19 -16 44
-16 55 0 17 5 14 36 -15 l37 -34 -20 -20z m404 65 c19 -4 21 -7 12 -22 -16
-26 -256 -19 -311 9 -21 11 -38 20 -38 22 0 4 315 -4 337 -9z m-351 -87 c-56
-56 -86 -121 -86 -188 0 -29 -5 -41 -21 -49 -11 -7 -22 -10 -24 -8 -8 9 19
146 35 177 24 48 115 132 133 125 10 -4 0 -20 -37 -57z m-116 44 c0 -5 -10
-15 -22 -23 -20 -13 -21 -18 -11 -41 16 -35 0 -44 -21 -12 -22 34 -20 60 7 73
28 13 47 15 47 3z m1085 -23 c9 -10 91 -230 110 -294 7 -25 -15 -37 -67 -39
-29 -1 -65 -5 -80 -9 -23 -7 -28 -5 -28 9 0 9 5 25 10 36 8 14 7 19 -3 19 -8
0 -19 -12 -26 -26 -10 -22 -9 -31 4 -50 17 -26 30 -30 40 -14 3 6 19 10 34 10
22 0 29 -5 30 -22 1 -13 2 -34 4 -47 2 -23 -3 -26 -70 -41 -66 -16 -72 -16
-75 -1 -3 13 -7 11 -16 -7 -19 -34 -7 -41 45 -26 55 17 113 18 113 4 0 -6 -12
-21 -27 -34 l-27 -23 22 -28 c30 -38 28 -68 -8 -98 -81 -68 -317 -60 -469 18
-48 24 -51 27 -39 48 6 12 13 42 15 67 1 25 6 62 9 83 8 49 -11 94 -49 113
-34 18 -29 25 33 45 58 18 134 92 151 147 7 26 32 60 68 96 50 49 65 58 122
71 71 16 157 12 174 -7z m-860 3 c18 -7 15 -10 -21 -29 -106 -54 -146 -170
-82 -239 24 -26 82 -48 99 -38 6 4 5 -2 -3 -14 -15 -25 -25 -26 -78 -5 -114
46 -113 200 1 298 44 38 51 40 84 27z m218 3 c3 -4 -1 -16 -9 -29 l-15 -22
-62 24 c-34 14 -64 27 -66 29 -2 2 29 4 71 4 41 0 77 -3 81 -6z m-687 -20 c44
-9 81 -18 82 -19 2 -2 1 -13 -3 -24 -6 -20 -11 -21 -86 -15 -52 5 -79 3 -79
-4 0 -5 36 -13 80 -17 69 -6 80 -10 80 -26 0 -17 -9 -19 -101 -19 l-102 0 7
53 c3 28 6 60 6 70 0 21 16 21 116 1z m961 -72 c-10 -100 -92 -194 -181 -209
-37 -6 -38 -5 -25 16 8 11 19 21 25 21 6 0 31 14 57 31 52 34 87 95 87 153 0
20 5 47 11 58 11 20 12 20 21 3 6 -10 8 -42 5 -73z m-694 64 c7 -19 -18 -42
-28 -26 -8 13 1 40 14 40 5 0 11 -6 14 -14z m301 -9 l29 -13 -59 -16 c-71 -20
-111 -49 -130 -94 -21 -51 2 -94 51 -94 46 0 61 79 20 106 -27 18 -25 34 5 34
26 0 60 -47 60 -84 0 -71 -95 -112 -153 -66 -70 56 -33 161 78 218 47 24 60
26 99 9z m-392 -79 c-9 -9 -12 -4 -11 23 0 32 1 33 11 11 8 -17 8 -26 0 -34z
m458 22 c-6 -11 -15 -20 -20 -20 -5 0 -14 9 -20 20 -10 18 -8 20 20 20 28 0
30 -2 20 -20z m247 -63 c-14 -23 -40 -51 -59 -62 l-33 -19 17 24 c10 14 34 51
55 82 30 45 39 53 41 38 2 -12 -8 -40 -21 -63z m-303 51 c20 -28 20 -52 1 -68
-12 -10 -15 -10 -15 3 0 9 -11 29 -25 45 -18 22 -22 32 -13 35 25 10 37 7 52
-15z m-349 -19 c-6 -26 -65 -67 -65 -47 0 13 61 80 67 74 2 -2 1 -14 -2 -27z
m236 -39 c35 -19 13 -79 -24 -64 -20 7 -27 27 -20 53 6 24 15 26 44 11z m-387
-16 c11 -29 6 -32 -79 -39 -48 -4 -85 -11 -85 -17 0 -7 28 -9 84 -4 73 6 84 5
90 -10 4 -9 5 -18 4 -19 -2 -1 -39 -10 -83 -19 -44 -10 -88 -20 -97 -22 -18
-5 -19 -2 -33 104 l-5 42 99 0 c81 0 100 -3 105 -16z m136 -32 c0 -15 -8 -39
-17 -52 l-18 -25 -6 35 c-3 23 0 41 10 53 20 25 31 21 31 -11z m96 -91 c13
-16 45 -37 70 -47 41 -16 44 -19 29 -33 -14 -14 -20 -14 -62 9 -50 27 -90 71
-79 89 10 16 15 14 42 -18z m-208 -17 c3 -18 -6 -23 -65 -39 -37 -10 -72 -21
-77 -26 -20 -18 2 -18 65 1 75 23 99 25 99 7 0 -14 -168 -100 -180 -92 -10 6
-44 124 -37 131 8 8 159 43 177 41 8 -1 16 -12 18 -23z m143 -16 c4 -99 2 -93
33 -91 16 1 36 9 45 17 15 13 20 14 35 3 16 -12 14 -16 -29 -52 -46 -37 -48
-38 -62 -19 -21 26 -83 156 -83 171 0 8 12 13 30 13 28 0 30 -2 31 -42z m483
-11 c-3 -8 9 -18 29 -25 19 -7 39 -23 45 -38 13 -27 16 -77 6 -87 -11 -11 -29
17 -31 47 -2 38 -16 50 -58 48 -39 -2 -44 11 -19 46 16 24 37 30 28 9z m-417
-42 c-2 -5 -11 -11 -20 -13 -12 -3 -17 4 -17 22 0 24 2 25 20 14 11 -7 19 -17
17 -23z m363 -56 c0 -23 -28 -32 -32 -11 -6 24 14 55 24 39 4 -7 8 -19 8 -28z
m-532 13 c2 -6 -18 -24 -43 -39 -64 -38 -91 -60 -84 -68 4 -3 37 12 74 35 53
32 70 39 76 28 14 -21 12 -23 -67 -83 -84 -63 -77 -64 -119 17 l-25 47 83 40
c84 40 98 43 105 23z m610 -15 c3 -15 -1 -17 -25 -11 -35 8 -37 10 -28 24 10
17 49 8 53 -13z m-128 -36 c0 -27 -26 -46 -34 -25 -6 17 9 44 25 44 5 0 9 -8
9 -19z m139 -17 c63 -53 28 -154 -54 -154 -82 0 -117 101 -54 154 17 14 41 26
54 26 13 0 37 -12 54 -26z m-171 -60 c23 -65 20 -171 -7 -226 -25 -52 -103
-128 -132 -128 -49 0 -49 13 3 44 104 62 142 168 103 285 -26 78 5 102 33 25z
m-391 20 c4 -11 -14 -36 -56 -78 -34 -34 -58 -65 -54 -69 4 -4 35 20 68 53 52
51 64 59 74 47 10 -12 1 -27 -45 -83 -32 -38 -60 -71 -62 -74 -4 -6 -69 65
-83 92 -8 14 4 27 63 72 40 31 77 56 81 56 4 0 10 -7 14 -16z m349 -91 c15
-100 -25 -178 -115 -225 -52 -27 -55 -28 -73 -11 -19 17 -19 18 4 24 110 29
176 131 145 225 -10 31 -11 46 -3 54 16 16 34 -13 42 -67z m-62 21 c3 -9 6
-35 6 -58 0 -72 -60 -141 -133 -153 -57 -9 -48 18 13 40 67 24 84 52 77 122
-5 51 -1 61 24 64 4 1 10 -6 13 -15z m-54 -60 c0 -19 -5 -45 -12 -57 -11 -20
-13 -18 -23 28 -11 50 -6 64 23 65 7 0 12 -14 12 -36z m-94 -34 c-46 -48 -51
-71 -28 -123 20 -45 66 -88 115 -106 23 -9 34 -7 65 13 79 49 126 123 138 216
6 45 8 49 26 39 17 -9 19 -17 14 -52 -17 -103 -82 -197 -169 -243 l-54 -28
-39 24 c-148 91 -180 190 -93 282 32 34 42 40 49 28 7 -11 0 -25 -24 -50z
m519 5 c44 -19 113 -40 153 -47 52 -9 71 -16 68 -25 -15 -38 -28 -153 -23
-204 5 -59 5 -59 -21 -59 -15 0 -79 18 -142 38 -63 21 -154 49 -201 62 l-86
24 29 45 c30 48 58 128 58 167 0 18 7 24 33 27 17 2 37 5 42 5 6 1 46 -14 90
-33z m-475 -30 c0 -18 -7 -28 -26 -35 -31 -12 -34 -12 -34 -1 0 13 40 61 51
61 5 0 9 -11 9 -25z m745 -200 c76 -23 105 -36 99 -46 -8 -13 -41 -11 -101 8
-38 12 -53 22 -53 35 0 10 1 18 3 18 1 0 25 -7 52 -15z m-340 -55 c94 -29 174
-56 180 -61 5 -5 -10 -9 -40 -9 -32 0 -102 17 -195 46 -80 26 -151 48 -159 50
-11 4 -11 7 -1 19 7 9 20 13 29 11 9 -3 93 -28 186 -56z m-134 -19 c57 -16
120 -37 139 -46 l35 -16 -65 6 c-89 8 -168 23 -231 41 -49 15 -52 17 -34 30
26 19 37 18 156 -15z m494 9 c16 -6 13 -9 -19 -20 -42 -13 -41 -14 -51 18 -6
21 -4 22 22 16 15 -4 37 -10 48 -14z"/>
<path d="M1772 1763 c4 -21 33 -25 33 -3 0 8 -8 16 -18 18 -14 3 -18 -1 -15
-15z"/>
<path d="M1731 1716 c-9 -10 -9 -16 -1 -21 17 -10 37 12 24 25 -8 8 -15 6 -23
-4z"/>
<path d="M1685 1660 c-4 -6 -3 -16 3 -22 6 -6 12 -6 17 2 4 6 3 16 -3 22 -6 6
-12 6 -17 -2z"/>
<path d="M1181 1816 c-12 -14 -5 -26 16 -26 15 0 18 26 4 34 -5 3 -14 0 -20
-8z"/>
<path d="M1826 1345 c-43 -15 -87 -44 -90 -59 -1 -12 23 -17 112 -23 80 -6
102 4 102 43 0 12 5 26 10 29 43 26 -66 34 -134 10z m61 -35 c2 -21 -2 -30
-12 -30 -15 0 -21 40 -8 53 12 13 18 7 20 -23z m-47 -10 c0 -21 -10 -24 -48
-14 -21 6 -21 7 -5 20 27 20 53 17 53 -6z"/>
<path d="M1390 890 c-11 -11 -20 -23 -20 -28 0 -20 34 -52 55 -52 21 0 55 32
55 52 0 14 -39 48 -55 48 -8 0 -24 -9 -35 -20z m55 -30 c0 -16 -6 -26 -18 -28
-19 -4 -32 20 -23 44 9 25 41 13 41 -16z"/>
<path d="M4839 2030 c-182 -31 -199 -282 -24 -340 62 -20 170 8 151 39 -5 8
-13 8 -28 0 -56 -30 -149 -4 -182 51 -19 33 -21 115 -3 150 29 57 115 86 181
60 26 -10 46 4 30 20 -15 15 -87 26 -125 20z"/>
<path d="M2555 2020 c-12 -19 6 -30 51 -30 l44 0 0 -150 c0 -143 1 -150 20
-150 19 0 20 7 20 150 l0 150 50 0 c43 0 50 3 50 20 0 19 -7 20 -114 20 -66 0
-117 -4 -121 -10z"/>
<path d="M2867 2023 c-4 -3 -7 -80 -7 -170 l0 -163 95 0 c78 0 95 3 95 15 0
12 -14 15 -70 15 l-70 0 0 60 0 59 62 3 c50 2 63 6 66 21 3 15 -5 17 -62 17
l-66 0 0 55 0 55 70 0 c63 0 70 2 70 20 0 18 -7 20 -88 20 -49 0 -92 -3 -95
-7z"/>
<path d="M3212 2013 c-118 -58 -122 -247 -7 -307 65 -34 204 -21 189 18 -4 11
-12 12 -48 1 -129 -39 -228 83 -167 203 33 65 84 81 195 60 10 -1 21 3 23 9
12 33 -128 45 -185 16z"/>
<path d="M3480 1861 l0 -171 25 0 c25 0 25 1 25 80 l0 80 85 0 85 0 0 -80 c0
-79 0 -80 25 -80 l25 0 -2 168 c-3 159 -4 167 -23 167 -18 0 -20 -8 -23 -72
l-3 -73 -84 0 -84 0 -3 73 c-3 66 -5 72 -25 75 l-23 3 0 -170z"/>
<path d="M3867 2023 c-4 -3 -7 -80 -7 -170 0 -156 1 -163 20 -163 19 0 20 7
20 142 l0 143 96 -145 c53 -80 98 -147 100 -148 1 -2 12 -1 23 3 20 6 21 13
21 176 0 162 -1 169 -20 169 -18 0 -20 -8 -22 -142 l-3 -141 -94 141 c-88 133
-112 157 -134 135z"/>
<path d="M4270 1860 c0 -163 1 -170 20 -170 19 0 20 7 20 170 0 163 -1 170
-20 170 -19 0 -20 -7 -20 -170z"/>
<path d="M4459 2017 c-65 -50 -40 -144 47 -171 59 -18 82 -78 43 -117 -21 -21
-50 -22 -106 -4 -17 6 -23 3 -23 -8 0 -22 69 -41 114 -33 45 9 76 47 76 96 0
41 -21 66 -80 95 -50 25 -70 45 -70 70 0 45 70 72 120 45 26 -14 39 9 15 27
-23 16 -114 17 -136 0z"/>
<path d="M5070 1860 c0 -163 1 -170 20 -170 18 0 20 7 20 80 l0 80 90 0 90 0
0 -80 c0 -73 2 -80 20 -80 19 0 20 7 20 170 0 163 -1 170 -20 170 -18 0 -20
-7 -20 -75 l0 -75 -90 0 -90 0 0 75 c0 68 -2 75 -20 75 -19 0 -20 -7 -20 -170z"/>
<path d="M5450 1860 l0 -170 90 0 c73 0 90 3 90 15 0 12 -14 15 -70 15 l-70 0
0 60 0 60 65 0 c58 0 65 2 65 20 0 18 -7 20 -65 20 l-65 0 0 55 0 55 70 0 c63
0 70 2 70 20 0 19 -7 20 -90 20 l-90 0 0 -170z"/>
<path d="M5120 1465 c0 -16 6 -25 15 -25 9 0 15 9 15 25 0 16 -6 25 -15 25 -9
0 -15 -9 -15 -25z"/>
<path d="M5272 1468 c5 -34 38 -37 38 -4 0 20 -5 26 -21 26 -15 0 -20 -5 -17
-22z"/>
<path d="M2978 1473 c-16 -4 -18 -21 -18 -174 0 -162 1 -169 20 -169 19 0 20
7 20 142 l0 143 96 -145 c53 -80 97 -146 98 -147 1 -1 12 0 24 4 22 5 22 8 22
174 0 162 -1 169 -20 169 -19 0 -20 -7 -20 -142 l0 -143 -95 142 c-51 78 -98
143 -102 145 -4 3 -16 3 -25 1z"/>
<path d="M4474 1469 c-43 -12 -68 -44 -68 -85 0 -41 22 -66 91 -103 42 -23 48
-30 51 -63 3 -31 -1 -40 -23 -54 -23 -15 -33 -16 -68 -7 -42 11 -57 9 -57 -7
0 -15 80 -32 115 -26 37 7 71 40 80 76 11 44 -10 77 -66 107 -91 49 -105 71
-70 114 20 25 80 31 105 10 14 -12 26 -5 26 15 0 6 -12 15 -27 18 -16 4 -35 9
-43 10 -8 2 -29 0 -46 -5z"/>
<path d="M2592 1336 c3 -118 6 -138 24 -163 44 -59 148 -66 208 -13 l31 28 3
141 c3 135 3 141 -16 141 -19 0 -20 -8 -24 -136 -3 -129 -4 -137 -27 -155 -32
-26 -104 -26 -131 1 -18 18 -20 33 -20 155 l0 135 -26 0 -26 0 4 -134z"/>
<path d="M3350 1300 c0 -163 1 -170 20 -170 19 0 20 7 20 170 0 163 -1 170
-20 170 -19 0 -20 -7 -20 -170z"/>
<path d="M3470 1457 c0 -7 27 -82 60 -167 33 -85 60 -156 60 -158 0 -2 10 -2
22 0 19 2 32 29 85 162 34 88 60 163 57 168 -12 20 -34 5 -48 -34 -9 -24 -33
-90 -55 -147 l-38 -104 -54 147 c-41 113 -58 146 -71 146 -10 0 -18 -6 -18
-13z"/>
<path d="M3830 1300 l0 -170 96 0 c86 0 95 2 92 18 -3 14 -16 18 -76 20 l-72
3 0 59 0 60 65 0 c51 0 65 3 65 15 0 12 -14 15 -65 15 l-65 0 0 55 0 54 72 3
c60 2 73 6 76 21 3 15 -6 17 -92 17 l-96 0 0 -170z"/>
<path d="M4100 1300 c0 -163 1 -170 20 -170 18 0 20 7 20 70 l0 70 34 0 c30 0
39 -8 90 -75 31 -41 58 -75 60 -75 2 0 9 6 15 14 9 11 0 28 -42 83 l-54 69 28
16 c53 31 47 126 -11 155 -14 7 -55 13 -92 13 l-68 0 0 -170z m157 114 c17
-24 17 -55 -3 -82 -12 -18 -25 -22 -65 -22 l-49 0 0 66 0 67 52 -5 c34 -4 56
-12 65 -24z"/>
<path d="M4690 1300 l0 -170 25 0 25 0 0 170 0 170 -25 0 -25 0 0 -170z"/>
<path d="M4810 1450 c0 -17 7 -20 45 -20 l45 0 0 -150 0 -150 25 0 25 0 0 149
0 150 47 3 c36 2 49 7 51 21 3 15 -8 17 -117 17 -114 0 -121 -1 -121 -20z"/>
<path d="M5125 1304 c-56 -136 -66 -167 -54 -175 22 -14 23 -13 47 51 l24 60
71 0 72 0 21 -57 c17 -46 25 -57 40 -55 10 2 20 5 21 6 2 1 -27 77 -64 169
-89 223 -88 223 -178 1z m120 43 c14 -37 25 -70 25 -72 0 -3 -27 -5 -59 -5
l-60 0 23 58 c13 31 26 66 30 76 9 25 11 21 41 -57z"/>
<path d="M5400 1450 c0 -17 7 -20 50 -20 l50 0 0 -150 c0 -143 1 -150 20 -150
19 0 20 7 20 149 l0 150 47 3 c36 2 49 7 51 21 3 15 -8 17 -117 17 -114 0
-121 -1 -121 -20z"/>
<path d="M4219 905 c-46 -25 -57 -95 -23 -136 8 -8 36 -26 63 -39 55 -25 76
-57 61 -95 -13 -35 -61 -44 -129 -24 -26 8 -23 -21 4 -31 78 -30 159 1 171 65
9 47 -12 76 -83 118 -65 37 -80 72 -46 109 18 20 60 21 106 3 12 -5 17 -2 17
8 0 17 -49 37 -89 37 -14 -1 -38 -7 -52 -15z"/>
<path d="M2592 743 l3 -168 80 1 c93 0 143 19 178 68 31 43 32 161 2 202 -37
48 -80 64 -178 64 l-87 0 2 -167z m172 123 c52 -22 76 -60 76 -121 0 -86 -54
-135 -150 -135 l-50 0 0 135 0 135 45 0 c25 0 60 -6 79 -14z"/>
<path d="M3066 901 c-19 -30 -133 -320 -128 -325 19 -20 39 -2 57 49 l19 56
74 -3 75 -3 20 -52 c14 -38 25 -53 38 -53 11 0 19 6 19 13 -1 6 -29 82 -63
167 -51 125 -67 156 -84 158 -12 2 -24 -1 -27 -7z m57 -116 l26 -75 -60 0
c-54 0 -60 2 -55 18 33 87 52 132 57 132 3 0 17 -34 32 -75z"/>
<path d="M3330 740 c0 -163 1 -170 20 -170 18 0 20 7 20 75 0 67 2 75 19 75
36 0 50 -12 102 -81 33 -45 57 -69 68 -67 26 5 19 23 -35 91 l-51 64 31 25
c25 21 31 32 31 67 0 35 -6 48 -28 67 -24 21 -38 24 -103 24 l-74 0 0 -170z
m150 120 c47 -47 10 -110 -65 -110 l-45 0 0 65 0 65 45 0 c32 0 51 -6 65 -20z"/>
<path d="M3722 833 c-12 -43 -33 -118 -46 -166 -21 -77 -22 -89 -9 -94 21 -8
27 4 63 144 18 68 36 120 40 116 4 -4 24 -65 45 -135 34 -114 40 -128 60 -128
19 0 26 15 60 130 21 72 42 133 45 135 4 3 23 -55 42 -128 27 -102 38 -132 51
-132 10 0 18 5 18 10 1 6 -18 81 -42 168 -42 151 -45 158 -68 155 -21 -3 -28
-16 -64 -142 l-41 -139 -17 54 c-10 30 -30 93 -44 142 -23 76 -29 87 -49 87
-20 0 -26 -10 -44 -77z"/>
<path d="M4430 895 c0 -11 12 -15 50 -15 l50 0 0 -155 c0 -148 1 -155 20 -155
19 0 20 7 20 155 l0 155 50 0 c38 0 50 4 50 15 0 13 -20 15 -120 15 -100 0
-120 -2 -120 -15z"/>
<path d="M4816 901 c-19 -30 -133 -320 -128 -325 19 -20 39 -2 57 49 l19 56
74 -3 75 -3 20 -52 c14 -38 25 -53 38 -53 11 0 19 6 19 13 -1 6 -29 82 -63
167 -51 125 -67 156 -84 158 -12 2 -24 -1 -27 -7z m56 -116 l27 -75 -61 0
c-53 0 -59 2 -54 18 32 84 52 132 56 132 3 0 17 -34 32 -75z"/>
<path d="M5070 740 l0 -170 58 0 c82 0 155 24 186 61 75 88 45 230 -57 268
-16 6 -64 11 -108 11 l-79 0 0 -170z m169 124 c71 -28 97 -101 63 -176 -23
-54 -67 -78 -141 -78 l-51 0 0 135 0 135 45 0 c24 0 62 -7 84 -16z"/>
<path d="M5400 895 c0 -11 12 -15 50 -15 l50 0 0 -155 c0 -148 1 -155 20 -155
19 0 20 7 20 155 l0 155 50 0 c38 0 50 4 50 15 0 13 -20 15 -120 15 -100 0
-120 -2 -120 -15z"/>
</g>
</svg>
